Coordinates
version=1
nRows=24
nColumns=22
inDegrees=yes

Units are S.I. units (second, meters, Newtons, ...)
If the header above contains a line with 'inDegrees', this indicates whether rotational values are in degrees (yes) or radians (no).

endheader
time	pelvis_tilt	pelvis_list	pelvis_rotation	pelvis_tx	pelvis_ty	pelvis_tz	hip_flexion_r	hip_adduction_r	hip_rotation_r	knee_angle_r	ankle_angle_r	subtalar_angle_r	hip_flexion_l	hip_adduction_l	hip_rotation_l	knee_angle_l	ankle_angle_l	subtalar_angle_l	lumbar_extension	lumbar_bending	lumbar_rotation
      3.38000000	    -10.36115040	     -3.46442890	     -0.69245359	      0.21210477	      0.97262368	      0.43596159	      5.68414753	      6.62753068	      1.39792598	    -29.34312964	     16.84004800	      6.28506864	     31.84789471	     -0.44224834	     -0.60656716	    -22.51655254	      8.26188760	     -0.32753642	      0.02767573	      4.61028707	      6.58185486
      3.39000000	    -10.42817700	     -3.25579749	     -0.66781279	      0.21876696	      0.97303557	      0.43455707	      6.07724654	      6.25046259	      1.27193847	    -30.53531711	     16.14397438	      7.15613315	     31.49939086	     -0.13401094	     -0.69377219	    -22.53612692	      8.65119390	     -0.67548179	      0.23534446	      4.36530470	      6.55411273
      3.40000000	    -10.50082914	     -3.04283150	     -0.64018299	      0.22536055	      0.97337525	      0.43317512	      6.53249541	      5.85753815	      1.10475656	    -31.80868348	     15.40598234	      7.98032045	     31.16028402	      0.18068420	     -0.76645449	    -22.55191865	      9.03829876	     -0.98672919	      0.44763691	      4.11236367	      6.51715861
      3.41000000	    -10.57413706	     -2.82652289	     -0.60461917	      0.23188377	      0.97364524	      0.43181344	      7.04321589	      5.44923676	      0.90421311	    -33.16114902	     14.62747799	      8.77363683	     30.83496595	      0.50196468	     -0.82194467	    -22.58208964	      9.43580463	     -1.26885444	      0.65857637	      3.85147640	      6.45919241
      3.42000000	    -10.64503840	     -2.60702835	     -0.56352165	      0.23832432	      0.97385301	      0.43047130	      7.60726147	      5.02416708	      0.67735072	    -34.59359477	     13.81446476	      9.52935071	     30.52274501	      0.82884230	     -0.85965431	    -22.63095447	      9.83915210	     -1.52140087	      0.86117467	      3.58360140	      6.38306921
      3.43000000	    -10.70176693	     -2.37374213	     -0.52227042	      0.24467267	      0.97403042	      0.42914117	      8.21770054	      4.56545254	      0.41598347	    -36.11336159	     12.96487603	     10.14373208	     30.19981455	      1.17133786	     -0.87740835	    -22.67609991	     10.20850853	     -1.71704964	      1.03913271	      3.29757427	      6.31164975
      3.44000000	    -10.77856693	     -2.16225460	     -0.48154469	      0.25089046	      0.97409348	      0.42785075	      8.90349855	      4.12734570	      0.18749179	    -37.70398326	     12.10193761	     10.87748854	     29.94450696	      1.48733473	     -0.90409379	    -22.79320195	     10.64904616	     -1.95352084	      1.23212987	      3.03830321	      6.19024012
      3.45000000	    -10.83995781	     -1.94880353	     -0.45093315	      0.25697839	      0.97414199	      0.42657904	      9.63753440	      3.67257066	     -0.04763495	    -39.37581831	     11.19030218	     11.44539906	     29.67490527	      1.80354608	     -0.91556088	    -22.89914474	     11.05119198	     -2.14029828	      1.39350237	      2.77970200	      6.09148317
      3.46000000	    -10.87954850	     -1.72915028	     -0.43392826	      0.26293641	      0.97418306	      0.42535499	     10.41117560	      3.20052184	     -0.27889595	    -41.12046950	     10.22695636	     11.81889044	     29.39356525	      2.11655390	     -0.94474119	    -23.01031175	     11.42975333	     -2.28695820	      1.51582532	      2.51200997	      5.99848054
      3.47000000	    -10.94986526	     -1.53982353	     -0.43016974	      0.26872748	      0.97411768	      0.42420389	     11.27823588	      2.76843413	     -0.46068101	    -42.92256380	      9.20179280	     12.14884094	     29.17776743	      2.38915520	     -0.98354234	    -23.16590529	     11.84726382	     -2.46743213	      1.66247547	      2.27998187	      5.88158453
      3.48000000	    -10.97515604	     -1.34532492	     -0.44546929	      0.27439223	      0.97410981	      0.42307121	     12.15178608	      2.32401597	     -0.61924380	    -44.76677217	      8.09378741	     12.29649537	     28.91227079	      2.66134959	     -1.03312724	    -23.30087258	     12.20524202	     -2.60048455	      1.74027813	      2.04963269	      5.80416591
      3.49000000	    -11.02869821	     -1.17563696	     -0.47844523	      0.27989414	      0.97401112	      0.42201382	     13.10899321	      1.91472934	     -0.73388984	    -46.64423336	      6.92880646	     12.32792409	     28.70776836	      2.89718676	     -1.09913074	    -23.47493674	     12.58134492	     -2.76357344	      1.83999034	      1.84813588	      5.71813575
      3.50000000	    -11.06281375	     -1.02450826	     -0.52814326	      0.28528138	      0.97392148	      0.42101692	     14.08205442	      1.53336776	     -0.80678917	    -48.51980185	      5.70590375	     12.25111128	     28.49520179	      3.10773385	     -1.16369429	    -23.65998838	     12.95104201	     -2.91947634	      1.90750430	      1.66936355	      5.63743758
      3.51000000	    -11.11266307	     -0.89807166	     -0.58101712	      0.29054168	      0.97376450	      0.42005067	     15.10205192	      1.18506453	     -0.85119672	    -50.38038374	      4.48465564	     12.01783778	     28.32699388	      3.29122613	     -1.23320567	    -23.88109205	     13.36129126	     -3.09881513	      1.98606885	      1.52503458	      5.52414675
      3.52000000	    -11.11884193	     -0.77305825	     -0.65596053	      0.29572713	      0.97367068	      0.41914181	     16.09525027	      0.83848807	     -0.86855940	    -52.19965543	      3.30631432	     11.79943782	     28.11116702	      3.46685308	     -1.29427988	    -24.09145007	     13.72818799	     -3.24319336	      2.00656287	      1.38101385	      5.44686142
      3.53000000	    -11.10598941	     -0.65607713	     -0.73438864	      0.30082430	      0.97358506	      0.41825004	     17.07843613	      0.50087321	     -0.86667987	    -53.95420183	      2.25575105	     11.61237974	     27.88673859	      3.63585427	     -1.34925919	    -24.31252969	     14.09634751	     -3.37397874	      1.99951854	      1.25043844	      5.35997011
      3.54000000	    -11.07109818	     -0.54520251	     -0.81441655	      0.30586412	      0.97351868	      0.41737763	     18.03643726	      0.16377311	     -0.86240377	    -55.61386010	      1.39307509	     11.49485823	     27.63947918	      3.80156606	     -1.38624902	    -24.52687747	     14.46062611	     -3.48720388	      1.96549986	      1.12850380	      5.26542665
      3.55000000	    -11.00285310	     -0.43254595	     -0.89255008	      0.31087221	      0.97349806	      0.41649496	     18.94704702	     -0.18938282	     -0.86779386	    -57.14902295	      0.77066510	     11.47448487	     27.34741665	      3.97692318	     -1.39745416	    -24.71964344	     14.80663140	     -3.57199725	      1.89362884	      1.00812033	      5.17228847
      3.56000000	    -10.92707299	     -0.32052647	     -0.95609192	      0.31584768	      0.97347048	      0.41557797	     19.82810038	     -0.55810639	     -0.89278790	    -58.53525624	      0.45818322	     11.48957821	     27.04682730	      4.16114200	     -1.39833484	    -24.90487418	     15.17472778	     -3.65133785	      1.81899924	      0.89623147	      5.03404523
      3.57000000	    -10.84073528	     -0.20410322	     -1.00509196	      0.32080850	      0.97345282	      0.41463095	     20.66954450	     -0.95445931	     -0.95116546	    -59.74779039	      0.46891559	     11.52332466	     26.72591519	      4.35901055	     -1.38353114	    -25.06953360	     15.52552196	     -3.72254254	      1.74100449	      0.78237692	      4.87739871
      3.58000000	    -10.73737127	     -0.08688696	     -1.03563505	      0.32576637	      0.97347050	      0.41362120	     21.45485095	     -1.37358093	     -1.03626924	    -60.76172140	      0.78845734	     11.53102863	     26.37154529	      4.57039372	     -1.34923283	    -25.20344867	     15.86146417	     -3.78157670	      1.64996891	      0.67627933	      4.69691934
      3.59000000	    -10.61941792	      0.02699309	     -1.04997541	      0.33072729	      0.97353100	      0.41257205	     22.18044689	     -1.80111537	     -1.13598248	    -61.55850880	      1.39906802	     11.44872439	     25.98065870	      4.78860336	     -1.29261144	    -25.29820186	     16.18843682	     -3.82505519	      1.55178422	      0.58109475	      4.48789926
      3.60000000	    -10.49980406	      0.15145643	     -1.04237135	      0.33567564	      0.97361145	      0.41146875	     22.86525404	     -2.25769142	     -1.25978107	    -62.14178008	      2.25009246	     11.22945426	     25.57242969	      5.02635452	     -1.23187353	    -25.36019971	     16.47365797	     -3.86896911	      1.45934669	      0.47732035	      4.27446951
      3.61000000	    -10.37688495	      0.28531275	     -1.01752446	      0.34060956	      0.97372259	      0.41033992	     23.50508409	     -2.72738808	     -1.38776486	    -62.50348386	      3.30265068	     10.79740127	     25.14140672	      5.28023306	     -1.15904948	    -25.38415396	     16.72084495	     -3.91474098	      1.36928378	      0.36396724	      4.04760787
